<?xml version="1.0" encoding="utf-8"?>
<!-- Generator: Adobe Illustrator 19.2.0, SVG Export Plug-In . SVG Version: 6.00 Build 0)  -->
<svg version="1.1" id="Layer_1" xmlns="http://www.w3.org/2000/svg" xmlns:xlink="http://www.w3.org/1999/xlink" x="0px" y="0px"
	 viewBox="0 0 1728 467.1" style="enable-background:new 0 0 1728 467.1;" xml:space="preserve">
<style type="text/css">
	.st0{fill:#FFFFFF;}
	.st1{fill:#80BD01;}
</style>
<g>
	<path class="st0" d="M260.4,247.9c0-5.1-3.1-10.2-7.1-12.2l-115.9-67.1c-2-1-4.1-2-6.1-2h-1c-2,0-4.1,1-6.1,2L7.1,235.6
		c-4.1,2-7.1,7.1-7.1,12.2v180c0,2,1,5.1,3.1,6.1s5.1,1,7.1,0l69.2-39.7c4.1-3.1,7.1-7.1,7.1-12.2v-84.4c0-5.1,3.1-9.2,7.1-12.2
		l29.5-17.3c2-1,5.1-2,7.1-2s5.1,1,7.1,2l29.5,17.3c4.1,2,7.1,7.1,7.1,12.2V382c0,5.1,3.1,9.2,7.1,12.2l69.2,39.7c2,1,5.1,1,7.1,0
		s3.1-3.1,3.1-6.1L260.4,247.9z"/>
	<path class="st0" d="M879.8,0.8c-2-1-5.1-1-7.1,0s-3.1,3.1-3.1,6.1v178c0,2-1,3.1-2,4.1s-3.1,1-5.1,0L833,172.6
		c-4.1-2-10.2-2-14.2,0l-115.9,67.1c-4.1,2-7.1,7.1-7.1,12.2v134.3c0,5.1,3.1,9.2,7.1,12.2l115.9,67.1c4.1,2,10.2,2,14.2,0
		l115.9-67.1c4.1-2,7.1-7.1,7.1-12.2V51.5c0-5.1-3.1-10.2-7.1-12.2L879.8,0.8z M868.6,341.4c0,1-1,2-2,3.1l-39.7,23.4
		c-1,1-2,1-3.1,0l-39.7-23.4c-1-1-2-2-2-3.1v-45.8c0-1,1-2,2-3.1l39.7-23.4c1-1,2-1,3.1,0l39.7,23.4c1,1,2,2,2,3.1V341.4z"/>
	<path class="st0" d="M1294.7,293.6c4.1-2,7.1-7.1,7.1-12.2v-32.5c0-5.1-3.1-9.2-7.1-12.2l-114.9-66.1c-4.1-2-10.2-2-14.2,0
		l-115.9,67.1c-4.1,2-7.1,7.1-7.1,12.2v134.3c0,5.1,3.1,10.2,7.1,12.2l114.9,66.1c4.1,2,9.2,2,14.2,0l70.2-38.6c2-1,4.1-3.1,4.1-6.1
		c0-2-1-5.1-3.1-6.1l-117-67.1c-2-1-3.1-4.1-3.1-6.1v-41.9c0-2,1-5.1,3.1-6.1l36.6-21.4c2-1,5.1-1,7.1,0l36.6,21.4
		c2,1,3.1,4.1,3.1,6.1v32.5c0,2,1,5.1,3.1,6.1s5.1,1,7.1,0L1294.7,293.6z"/>
	<path class="st1" d="M470.9,169.5c4.1-2,10.2-2,14.2,0l116,67.1c4.1,2,7.1,7.1,7.1,12.2v134.3c0,5.1-3.1,9.2-7.1,12.2l-115.9,67.1
		c-4.1,2-10.2,2-14.2,0l-116-67.1c-4.1-2-7.1-7.1-7.1-12.2V248.9c0-5.1,3.1-9.2,7.1-12.2L470.9,169.5z"/>
	<path class="st1" d="M1520.5,463.4c-4.1,0-8.1-1-11.2-3.1l-36.6-21.4c-5.1-3.1-3.1-4.1-1-5.1c7.1-2,9.2-3.1,16.3-7.1c1,0,2,0,3.1,0
		l28.5,16.3c1,1,2,1,3.1,0l109.8-63.1c1-1,2-2,2-3.1V251.9c0-1-1-2-2-3.1l-109.8-63.1c-1-1-2-1-3.1,0l-109.8,63.1c-1,1-2,2-2,3.1
		V378c0,1,1,2,2,3.1l29.5,17.3c16.3,8.1,26.4-1,26.4-11.2V262.1c0-2,1-3.1,3.1-3.1h14.2c2,0,3.1,1,3.1,3.1v125.1
		c0,21.4-12.2,34.6-32.5,34.6c-6.1,0-11.2,0-25.4-7.1l-28.5-16.3c-7.1-4.1-11.2-12.2-11.2-20.3V251.9c0-8.1,4.1-16.3,11.2-20.3
		l109.8-63.1c7.1-4.1,16.3-4.1,23.4,0l109.8,63.1c7.1,4.1,11.2,12.2,11.2,20.3V378c0,8.1-4.1,16.3-11.2,20.3l-109.8,63.1
		C1527.6,462.4,1524.6,463.4,1520.5,463.4z"/>
	<path class="st1" d="M1554.1,377.1c-47.8,0-58-22.4-58-40.7c0-2,1-3.1,3.1-3.1h14.2c2,0,3.1,1,3.1,3.1c2,14.2,8.1,21.4,37.6,21.4
		c23.4,0,32.5-5.1,32.5-17.3c0-7.1-3.1-12.2-38.6-16.3c-29.5-3.1-48.8-9.2-48.8-33.6c0-22.4,18.3-35.6,49.8-35.6
		c34.6,0,52.9,12.2,54.9,38.6c0,1,0,2-1,2c-1,1-1,1-2,1h-14.2c-1,0-3.1-1-3.1-2c-3.1-15.3-11.2-20.3-34.6-20.3
		c-25.4,0-28.5,9.2-28.5,15.3c0,8.1,3.1,10.2,37.6,15.3c33.6,4.1,49.8,11.2,49.8,34.6C1608,362.9,1588.7,377.1,1554.1,377.1z"/>
	<path class="st1" d="M1170.6,287.5c1,0,2,0,3.1,0l22.4,13.2c1,0,1,1,1,2v25.4c0,1-1,2-1,2l-22.4,13.2c-1,0-2,0-3.1,0l-22.4-13.2
		c-1,0-1-1-1-2v-25.4c0-1,1-2,1-2L1170.6,287.5z"/>
	<g>
		<path class="st1" d="M1728,202.1c0,11.2-9.2,21.4-21.4,21.4c-11.2,0-21.4-9.2-21.4-21.4c0-12.2,10.2-21.4,21.4-21.4
			C1718.8,181.8,1728,190.9,1728,202.1z M1689.4,202.1c0,10.2,8.1,17.3,17.3,17.3c10.2,0,17.3-8.1,17.3-17.3
			c0-10.2-8.1-17.3-17.3-17.3S1689.4,192.9,1689.4,202.1z M1699.5,190.9h8.1c3.1,0,8.1,0,8.1,6.1c0,4.1-3.1,5.1-4.1,6.1
			c3.1,0,3.1,2,4.1,5.1c0,2,1,5.1,1,6.1h-5.1c0-1-1-7.1-1-7.1c0-1-1-2-2-2h-4.1v9.2h-5.1L1699.5,190.9L1699.5,190.9z M1703.6,201
			h4.1c3.1,0,4.1-2,4.1-3.1c0-3.1-2-3.1-3.1-3.1h-4.1v6.1h-1V201z"/>
	</g>
</g>
</svg>
