<?xml version="1.0" encoding="utf-8"?>
<!-- Generator: Adobe Illustrator 19.2.0, SVG Export Plug-In . SVG Version: 6.00 Build 0)  -->
<svg version="1.1"
	 id="Layer_1" inkscape:export-filename="/home/amarcuse/site/common/images/badge/ruby.png" inkscape:export-xdpi="90" inkscape:export-ydpi="90" inkscape:version="0.48.4 r9939" sodipodi:docname="ruby-horizontal.svg" xmlns:cc="http://creativecommons.org/ns#" xmlns:dc="http://purl.org/dc/elements/1.1/" xmlns:inkscape="http://www.inkscape.org/namespaces/inkscape" xmlns:rdf="http://www.w3.org/1999/02/22-rdf-syntax-ns#" xmlns:sodipodi="http://sodipodi.sourceforge.net/DTD/sodipodi-0.dtd" xmlns:svg="http://www.w3.org/2000/svg"
	 xmlns="http://www.w3.org/2000/svg" xmlns:xlink="http://www.w3.org/1999/xlink" x="0px" y="0px" viewBox="0 0 215 64"
	 style="enable-background:new 0 0 215 64;" xml:space="preserve">
<style type="text/css">
	.st0{fill:url(#polygon3282_1_);}
	.st1{fill:url(#polygon3293_1_);}
	.st2{fill:url(#polygon3304_1_);}
	.st3{fill:url(#polygon3319_1_);}
	.st4{fill:url(#polygon3334_1_);}
	.st5{fill:url(#polygon3349_1_);}
	.st6{fill:url(#polygon3362_1_);}
	.st7{fill:url(#polygon3375_1_);}
	.st8{fill:#FFFFFF;}
	.st9{fill:url(#path3400_1_);}
	.st10{fill:url(#path3413_1_);}
	.st11{fill:url(#path3424_1_);}
	.st12{fill:url(#path3435_1_);}
	.st13{fill:#9E1209;}
	.st14{fill:url(#path3448_1_);}
	.st15{fill:url(#path3459_1_);}
	.st16{fill:url(#path3472_1_);}
	.st17{fill:url(#path3485_1_);}
</style>
<sodipodi:namedview  bordercolor="#666666" borderopacity="1" gridtolerance="10" guidetolerance="10" id="namedview3487" inkscape:current-layer="Layer_1" inkscape:cx="137.5" inkscape:cy="32" inkscape:pageopacity="0" inkscape:pageshadow="2" inkscape:window-height="1176" inkscape:window-maximized="1" inkscape:window-width="1535" inkscape:window-x="65" inkscape:window-y="24" inkscape:zoom="5.0981818" objecttolerance="10" pagecolor="#ffffff" showgrid="false">
	</sodipodi:namedview>
<g id="g3212" transform="matrix(0.28141988,0,0,0.28141988,-0.16465108,0.00979551)">
	
		<linearGradient id="polygon3282_1_" gradientUnits="userSpaceOnUse" x1="1907.5469" y1="-2500.3511" x2="1865.7494" y2="-2426.5554" gradientTransform="matrix(0.2814 0 0 -0.2814 -362.7486 -488.0994)">
		<stop  offset="0" style="stop-color:#FB7655"/>
		<stop  offset="0" style="stop-color:#FB7655"/>
		<stop  offset="0.41" style="stop-color:#E42B1E"/>
		<stop  offset="0.99" style="stop-color:#990000"/>
		<stop  offset="1" style="stop-color:#990000"/>
	</linearGradient>
	<polygon id="polygon3282" class="st0" points="186.8,187.6 198.1,39.9 153.5,130.4 40.4,197.6 	"/>
	
		<linearGradient id="polygon3293_1_" gradientUnits="userSpaceOnUse" x1="1981.5363" y1="-2280.0688" x2="1927.6688" y2="-2243.9207" gradientTransform="matrix(0.2814 0 0 -0.2814 -362.7486 -488.0994)">
		<stop  offset="0" style="stop-color:#871101"/>
		<stop  offset="0" style="stop-color:#871101"/>
		<stop  offset="0.99" style="stop-color:#911209"/>
		<stop  offset="1" style="stop-color:#911209"/>
	</linearGradient>
	<polygon id="polygon3293" class="st1" points="174.5,100.6 140.2,145.9 187.1,187.5 	"/>
	
		<linearGradient id="polygon3304_1_" gradientUnits="userSpaceOnUse" x1="1828.3851" y1="-2508.2966" x2="1774.5194" y2="-2472.1494" gradientTransform="matrix(0.2814 0 0 -0.2814 -362.7486 -488.0994)">
		<stop  offset="0" style="stop-color:#871101"/>
		<stop  offset="0" style="stop-color:#871101"/>
		<stop  offset="0.99" style="stop-color:#911209"/>
		<stop  offset="1" style="stop-color:#911209"/>
	</linearGradient>
	<polygon id="polygon3304" class="st2" points="95,180.3 40.9,197.4 187.3,187.5 	"/>
	
		<linearGradient id="polygon3319_1_" gradientUnits="userSpaceOnUse" x1="1426.4976" y1="-2187.0876" x2="1434.8481" y2="-2241.3586" gradientTransform="matrix(0.2814 0 0 -0.2814 -362.7486 -488.0994)">
		<stop  offset="0" style="stop-color:#FFFFFF"/>
		<stop  offset="0" style="stop-color:#FFFFFF"/>
		<stop  offset="0.23" style="stop-color:#E57252"/>
		<stop  offset="0.46" style="stop-color:#DE3B20"/>
		<stop  offset="0.99" style="stop-color:#A60003"/>
		<stop  offset="1" style="stop-color:#A60003"/>
	</linearGradient>
	<polygon id="polygon3319" class="st3" points="64,121.9 13.3,132.8 41,197.4 	"/>
	
		<linearGradient id="polygon3334_1_" gradientUnits="userSpaceOnUse" x1="1630.5942" y1="-2007.0177" x2="1633.671" y2="-2062.4045" gradientTransform="matrix(0.2814 0 0 -0.2814 -362.7486 -488.0994)">
		<stop  offset="0" style="stop-color:#FFFFFF"/>
		<stop  offset="0" style="stop-color:#FFFFFF"/>
		<stop  offset="0.23" style="stop-color:#E4714E"/>
		<stop  offset="0.56" style="stop-color:#BE1A0D"/>
		<stop  offset="0.99" style="stop-color:#A80D00"/>
		<stop  offset="1" style="stop-color:#A80D00"/>
	</linearGradient>
	<polygon id="polygon3334" class="st4" points="119,63.1 58.3,120 140.2,146.2 	"/>
	
		<linearGradient id="polygon3349_1_" gradientUnits="userSpaceOnUse" x1="1811.7126" y1="-1825.1031" x2="1820.9238" y2="-1864.7983" gradientTransform="matrix(0.2814 0 0 -0.2814 -362.7486 -488.0994)">
		<stop  offset="0" style="stop-color:#FFFFFF"/>
		<stop  offset="0" style="stop-color:#FFFFFF"/>
		<stop  offset="0.18" style="stop-color:#E46342"/>
		<stop  offset="0.4" style="stop-color:#C82410"/>
		<stop  offset="0.99" style="stop-color:#A80D00"/>
		<stop  offset="1" style="stop-color:#A80D00"/>
	</linearGradient>
	<polygon id="polygon3349" class="st5" points="136,17.5 120,69.1 193.3,64.3 	"/>
	
		<linearGradient id="polygon3362_1_" gradientUnits="userSpaceOnUse" x1="1711.7655" y1="-1775.4299" x2="1751.458" y2="-1755.5836" gradientTransform="matrix(0.2814 0 0 -0.2814 -362.7486 -488.0994)">
		<stop  offset="0" style="stop-color:#FFFFFF"/>
		<stop  offset="0" style="stop-color:#FFFFFF"/>
		<stop  offset="0.54" style="stop-color:#C81F11"/>
		<stop  offset="0.99" style="stop-color:#BF0905"/>
		<stop  offset="1" style="stop-color:#BF0905"/>
	</linearGradient>
	<polygon id="polygon3362" class="st6" points="132.8,19.4 111.5,0.5 166.5,0.8 	"/>
	
		<linearGradient id="polygon3375_1_" gradientUnits="userSpaceOnUse" x1="1302.866" y1="-2137.9229" x2="1306.1328" y2="-2170.6311" gradientTransform="matrix(0.2814 0 0 -0.2814 -362.7486 -488.0994)">
		<stop  offset="0" style="stop-color:#FFFFFF"/>
		<stop  offset="0" style="stop-color:#FFFFFF"/>
		<stop  offset="0.31" style="stop-color:#DE4024"/>
		<stop  offset="0.99" style="stop-color:#BF190B"/>
		<stop  offset="1" style="stop-color:#BF190B"/>
	</linearGradient>
	<polygon id="polygon3375" class="st7" points="14.1,132.3 2.7,101.6 0,158.1 	"/>
	<path id="path3377" inkscape:connector-curvature="0" class="st8" d="M1.9,100.6l11.5,32.6l50-11.2l57-53l16.1-51.1L111.2,0
		L68.1,16.1C54.5,28.8,28.2,53.7,27.2,54.2C26.3,54.7,9.8,85.8,1.9,100.6z"/>
	
		<linearGradient id="path3400_1_" gradientUnits="userSpaceOnUse" x1="1223.0565" y1="-2285.5647" x2="1376.6274" y2="-2127.6509" gradientTransform="matrix(0.2814 0 0 -0.2814 -362.7486 -488.0994)">
		<stop  offset="0" style="stop-color:#BD0012"/>
		<stop  offset="0" style="stop-color:#BD0012"/>
		<stop  offset="7.000000e-02" style="stop-color:#FFFFFF"/>
		<stop  offset="0.17" style="stop-color:#FFFFFF"/>
		<stop  offset="0.27" style="stop-color:#C82F1C"/>
		<stop  offset="0.33" style="stop-color:#820C01"/>
		<stop  offset="0.46" style="stop-color:#A31601"/>
		<stop  offset="0.72" style="stop-color:#B31301"/>
		<stop  offset="0.99" style="stop-color:#E82609"/>
		<stop  offset="1" style="stop-color:#E82609"/>
	</linearGradient>
	<path id="path3400" inkscape:connector-curvature="0" class="st9" d="M42.3,42c29.4-29.2,67.4-46.4,81.9-31.7
		c14.6,14.7-0.9,50.4-30.3,79.6S27,137.2,12.5,122.5C-2.1,107.9,12.9,71.2,42.3,42z"/>
	
		<linearGradient id="path3413_1_" gradientUnits="userSpaceOnUse" x1="1641.0479" y1="-2342.1646" x2="1594.7909" y2="-2330.748" gradientTransform="matrix(0.2814 0 0 -0.2814 -362.7486 -488.0994)">
		<stop  offset="0" style="stop-color:#8C0C01"/>
		<stop  offset="0" style="stop-color:#8C0C01"/>
		<stop  offset="0.54" style="stop-color:#990C00"/>
		<stop  offset="0.99" style="stop-color:#A80D0E"/>
		<stop  offset="1" style="stop-color:#A80D0E"/>
	</linearGradient>
	<path id="path3413" inkscape:connector-curvature="0" class="st10" d="M41,197.4l22.9-75.7l75.9,24.4
		C112.3,171.8,81.8,193.5,41,197.4z"/>
	
		<linearGradient id="path3424_1_" gradientUnits="userSpaceOnUse" x1="1923.3695" y1="-2144.8877" x2="1882.2762" y2="-2108.0569" gradientTransform="matrix(0.2814 0 0 -0.2814 -362.7486 -488.0994)">
		<stop  offset="0" style="stop-color:#7E110B"/>
		<stop  offset="0" style="stop-color:#7E110B"/>
		<stop  offset="0.99" style="stop-color:#9E0C00"/>
		<stop  offset="1" style="stop-color:#9E0C00"/>
	</linearGradient>
	<path id="path3424" inkscape:connector-curvature="0" class="st11" d="M120.6,68.9l19.5,77.2c22.9-24.1,43.5-50,53.6-82.1
		C193.6,64,120.6,68.9,120.6,68.9z"/>
	
		<linearGradient id="path3435_1_" gradientUnits="userSpaceOnUse" x1="1977.0159" y1="-1904.7583" x2="1956.5465" y2="-1882.875" gradientTransform="matrix(0.2814 0 0 -0.2814 -362.7486 -488.0994)">
		<stop  offset="0" style="stop-color:#79130D"/>
		<stop  offset="0" style="stop-color:#79130D"/>
		<stop  offset="0.99" style="stop-color:#9E120B"/>
		<stop  offset="1" style="stop-color:#9E120B"/>
	</linearGradient>
	<path id="path3435" inkscape:connector-curvature="0" class="st12" d="M193.4,64.4c7.8-23.5,9.6-57.3-27.2-63.6l-30.2,16.7
		L193.4,64.4z"/>
	<path id="path3437" inkscape:connector-curvature="0" class="st13" d="M0,157.7c1.1,38.9,29.1,39.4,41,39.8l-27.6-64.4L0,157.7z"/>
	
		<radialGradient id="path3448_1_" cx="1800.0863" cy="-2016.5156" r="50.3576" gradientTransform="matrix(0.2814 0 0 -0.2814 -362.7486 -488.0994)" gradientUnits="userSpaceOnUse">
		<stop  offset="0" style="stop-color:#A80D00"/>
		<stop  offset="0" style="stop-color:#A80D00"/>
		<stop  offset="0.99" style="stop-color:#7E0E08"/>
		<stop  offset="1" style="stop-color:#7E0E08"/>
	</radialGradient>
	<path id="path3448" inkscape:connector-curvature="0" class="st14" d="M120.7,69c17.6,10.8,53.1,32.6,53.9,33
		c1.1,0.6,15.3-23.9,18.5-37.8C193,64.2,120.7,69,120.7,69z"/>
	
		<radialGradient id="path3459_1_" cx="1552.2744" cy="-2252.3296" r="66.9437" gradientTransform="matrix(0.2814 0 0 -0.2814 -362.7486 -488.0994)" gradientUnits="userSpaceOnUse">
		<stop  offset="0" style="stop-color:#A30C00"/>
		<stop  offset="0" style="stop-color:#A30C00"/>
		<stop  offset="0.99" style="stop-color:#800E08"/>
		<stop  offset="1" style="stop-color:#800E08"/>
	</radialGradient>
	<path id="path3459" inkscape:connector-curvature="0" class="st15" d="M63.8,121.7l30.6,59c18.1-9.8,32.2-21.7,45.2-34.5
		L63.8,121.7z"/>
	
		<linearGradient id="path3472_1_" gradientUnits="userSpaceOnUse" x1="1383.7645" y1="-2435.6316" x2="1367.0834" y2="-2379.0376" gradientTransform="matrix(0.2814 0 0 -0.2814 -362.7486 -488.0994)">
		<stop  offset="0" style="stop-color:#8B2114"/>
		<stop  offset="0" style="stop-color:#8B2114"/>
		<stop  offset="0.43" style="stop-color:#9E100A"/>
		<stop  offset="0.99" style="stop-color:#B3100C"/>
		<stop  offset="1" style="stop-color:#B3100C"/>
	</linearGradient>
	<path id="path3472" inkscape:connector-curvature="0" class="st16" d="M13.3,133.2L9,184.7c8.2,11.2,19.4,12.1,31.2,11.3
		C31.7,174.8,14.6,132.3,13.3,133.2z"/>
	
		<linearGradient id="path3485_1_" gradientUnits="userSpaceOnUse" x1="1838.4973" y1="-1769.2324" x2="1875.8953" y2="-1785.7405" gradientTransform="matrix(0.2814 0 0 -0.2814 -362.7486 -488.0994)">
		<stop  offset="0" style="stop-color:#B31000"/>
		<stop  offset="0" style="stop-color:#B31000"/>
		<stop  offset="0.44" style="stop-color:#910F08"/>
		<stop  offset="0.99" style="stop-color:#791C12"/>
		<stop  offset="1" style="stop-color:#791C12"/>
	</linearGradient>
	<path id="path3485" inkscape:connector-curvature="0" class="st17" d="M135.9,17.6l60.7,8.5c-3.2-13.7-13.2-22.6-30.1-25.4
		L135.9,17.6z"/>
</g>
<g id="g4251" transform="translate(11.718458,3.0813029)">
	<path id="path3206" inkscape:connector-curvature="0" class="st8" d="M96.2,46.7H83.9c-2.7-4.3-5.2-7.9-7.4-11.1
		c-2.2-3.1-4.6-6.3-7.1-9.6h-4.7v14.5c0,0.7,0.1,1.4,0.4,2c0.2,0.6,0.7,1,1.5,1.3c0.4,0.1,1.1,0.3,2,0.4c1,0.1,1.8,0.2,2.4,0.2v2.3
		H51.8v-2.3c0.5,0,1.3-0.1,2.2-0.2c1-0.1,1.7-0.2,2.1-0.4c0.6-0.3,1.1-0.7,1.4-1.2c0.3-0.5,0.4-1.2,0.4-2.1v-33c0-0.7-0.1-1.4-0.3-2
		c-0.2-0.6-0.7-1-1.5-1.3C55.5,4,54.8,3.9,54,3.7c-0.9-0.2-1.6-0.3-2.2-0.3V1.1h21c1.9,0,3.7,0.2,5.4,0.6c1.7,0.4,3.2,1,4.6,1.9
		c1.3,0.9,2.4,2,3.2,3.4c0.8,1.4,1.2,3,1.2,5c0,1.8-0.3,3.3-0.8,4.7c-0.5,1.3-1.3,2.5-2.4,3.5c-1,0.9-2.1,1.7-3.5,2.4
		c-1.3,0.7-2.8,1.2-4.5,1.7c2.2,3,4.1,5.5,5.6,7.5c1.5,2,3.3,4.5,5.5,7.4c0.9,1.3,1.8,2.2,2.5,2.9c0.8,0.6,1.5,1.1,2.3,1.5
		c0.6,0.3,1.3,0.5,2.1,0.6c0.8,0.1,1.5,0.2,2.1,0.3V46.7 M79.3,12.7c0-2.8-0.8-4.9-2.4-6.6c-1.6-1.6-3.8-2.4-6.7-2.4h-5.5v19.6h4.2
		c3,0,5.4-0.9,7.4-2.8C78.3,18.5,79.3,16,79.3,12.7"/>
	<path id="path3208" inkscape:connector-curvature="0" class="st8" d="M131.1,46.1l-10.3,0.7l-0.5-0.4v-4h-0.2
		c-0.5,0.5-1.1,1.1-1.7,1.7c-0.6,0.6-1.4,1.1-2.2,1.6c-1,0.6-1.9,1-2.8,1.3c-0.9,0.3-2.2,0.4-3.8,0.4c-2.8,0-4.9-0.9-6.4-2.7
		c-1.5-1.8-2.2-4.5-2.2-8V21.6c0-0.8-0.1-1.4-0.4-1.9c-0.3-0.5-0.7-1-1.3-1.4c-0.4-0.3-0.9-0.4-1.4-0.5c-0.6-0.1-1.2-0.2-1.8-0.3
		v-2.1l10.6-0.8l0.5,0.4v22c0,2.3,0.5,4,1.5,5.2c1,1.2,2.3,1.7,3.7,1.7c1.2,0,2.2-0.2,3.1-0.5c0.9-0.4,1.7-0.8,2.3-1.3
		c0.6-0.4,1.1-0.9,1.5-1.4c0.4-0.5,0.8-1,1-1.4v-18c0-0.7-0.1-1.3-0.4-1.9c-0.3-0.6-0.7-1-1.3-1.4c-0.4-0.3-1-0.4-1.7-0.4
		c-0.7-0.1-1.6-0.1-2.5-0.2v-2.1l11.5-0.8l0.5,0.4v25.2c0,0.7,0.1,1.3,0.4,1.9c0.3,0.5,0.7,1,1.3,1.3c0.4,0.2,0.8,0.4,1.4,0.5
		c0.5,0.1,1.1,0.1,1.8,0.1L131.1,46.1"/>
	<path id="path3210" inkscape:connector-curvature="0" class="st8" d="M167.2,30.8c0,4.8-1.5,8.7-4.5,12c-3,3.2-6.5,4.9-10.4,4.9
		c-1.7,0-3.4-0.3-5.1-0.8c-1.7-0.5-3.2-1.3-4.7-2.2l-2.4,3.7l-2-0.4c0.1-1.6,0.2-3.5,0.2-5.7c0-2.2,0.1-4.4,0.1-6.5V4.4
		c0-0.7-0.2-1.5-0.5-2.2c-0.3-0.7-0.7-1.3-1.3-1.6c-0.4-0.3-1.1-0.5-2.1-0.6c-0.9-0.1-1.7-0.2-2.3-0.3v-2.1L143.8-3l0.4,0.5v20.9
		l0.2,0.1c1.3-1.4,2.8-2.5,4.3-3.2c1.6-0.7,3.1-1.1,4.7-1.1c3.9,0,7.2,1.5,9.8,4.6C165.9,21.9,167.2,25.9,167.2,30.8 M160.5,31
		c0-1.6-0.2-3.2-0.5-4.9c-0.3-1.6-0.9-3.1-1.6-4.3c-0.7-1.2-1.7-2.2-2.9-3c-1.2-0.8-2.6-1.2-4.2-1.2c-1.5,0-2.8,0.3-4,0.9
		c-1.1,0.6-2.1,1.4-3,2.4v18.4c0.1,0.5,0.4,1.1,0.7,1.8c0.4,0.7,0.9,1.3,1.5,2c0.6,0.6,1.4,1.1,2.2,1.5c0.8,0.4,1.8,0.5,3,0.5
		c2.6,0,4.7-1.3,6.3-3.8C159.6,38.9,160.5,35.4,160.5,31"/>
	<path id="path3212" inkscape:connector-curvature="0" class="st8" d="M169.5,57c0-1.1,0.3-1.9,0.9-2.6c0.6-0.7,1.3-1,2.2-1
		c0.7,0,1.3,0.1,1.8,0.4c0.5,0.3,0.9,0.6,1.3,1c0.3,0.3,0.7,0.8,1,1.3c0.4,0.6,0.7,1,0.9,1.4c1.1-0.6,2.3-2.1,3.8-4.5
		c1.5-2.4,2.6-4.6,3.2-6.4c-2-5.1-3.9-9.6-5.5-13.6c-1.6-4-3.4-8.1-5.2-12.4c-0.4-1-1.1-1.7-2.1-2.3c-1-0.6-1.9-0.9-2.9-1.1V15h14.5
		v2.2c-0.6,0-1.4,0.2-2.3,0.4c-0.9,0.2-1.3,0.6-1.3,1c0,0,0.1,0.2,0.2,0.5c0.1,0.3,0.2,0.6,0.3,0.9c0.8,2.1,2.1,5.2,3.7,9.2
		c1.7,4,3,7.2,3.9,9.6c1-2.3,2-4.7,3-7.1c1-2.5,2.2-5.4,3.5-8.7c0.1-0.4,0.4-1,0.6-1.7c0.3-0.7,0.4-1.3,0.4-1.9
		c0-0.6-0.5-1.1-1.5-1.5c-1-0.5-1.9-0.8-2.8-0.9V15h11.8v2c-0.6,0.1-1.5,0.5-2.5,1.1c-1,0.6-1.8,1.5-2.3,2.7
		c-2.5,5.9-4.8,11.3-6.8,16.2c-2,4.9-3.5,8.4-4.5,10.7c-1.3,3-2.6,5.3-3.6,7c-1,1.7-2.1,3-3.1,4c-1,0.9-1.9,1.5-2.7,1.8
		c-0.8,0.3-1.6,0.5-2.5,0.5c-1.7,0-3-0.4-4-1.2C170,59,169.5,58.1,169.5,57"/>
</g>
<g id="flowRoot3204" transform="translate(-1.5233304e-6,-133.58)">
</g>
</svg>
