<?xml version="1.0" encoding="utf-8"?>
<!-- Generator: Adobe Illustrator 19.2.0, SVG Export Plug-In . SVG Version: 6.00 Build 0)  -->
<svg version="1.1" id="Layer_1" xmlns="http://www.w3.org/2000/svg" xmlns:xlink="http://www.w3.org/1999/xlink" x="0px" y="0px"
	 viewBox="0 0 164 48" style="enable-background:new 0 0 164 48;" xml:space="preserve">
<style type="text/css">
	.st0{fill:#F05138;}
	.st1{fill:#FEFEFE;}
	.st2{fill:#FFFFFF;}
</style>
<path class="st0" d="M47.2,12.3c0-1-0.1-2.1-0.3-3.1s-0.5-2-1-3c-0.5-0.9-1.1-1.8-1.8-2.5s-1.6-1.4-2.5-1.8c-0.9-0.5-1.9-0.8-2.9-1
	s-2.1-0.2-3.1-0.3h-1.4h-1.7H20h-5.2h-1.7h-1.4h-0.8c-0.8,0-1.6,0.1-2.3,0.2C7.8,0.9,7.1,1.1,6.4,1.4C6.2,1.5,5.9,1.6,5.7,1.7
	C5,2.1,4.4,2.5,3.8,3C3.6,3.2,3.4,3.3,3.2,3.5C2.5,4.2,1.8,5.1,1.4,6c-0.5,0.9-0.8,1.9-1,3c-0.2,1-0.2,2.1-0.3,3.1v1.4v1.7v7.7v10
	v1.7V36c0,1,0.1,2.1,0.3,3.1s0.5,2,1,3c0.5,0.9,1.1,1.8,1.8,2.5s1.6,1.4,2.5,1.8c0.9,0.5,1.9,0.8,2.9,1s2.1,0.2,3.1,0.3h1.4h1.7
	h17.7h1.7h1.4c1,0,2.1-0.1,3.1-0.3s2-0.5,2.9-1s1.8-1.1,2.5-1.8s1.4-1.6,1.8-2.5c0.5-0.9,0.8-1.9,1-3c0.2-1,0.2-2.1,0.3-3.1v-1.4
	v-1.7V15.2v-1.5C47.2,13.7,47.2,12.3,47.2,12.3z"/>
<path class="st1" d="M31.6,37c-4.2,2.4-10,2.7-15.8,0.2c-4.7-2-8.6-5.5-11.1-9.5c1.2,1,2.6,1.8,4.1,2.5c6,2.8,12,2.6,16.2,0
	c0,0,0,0,0,0c-6-4.6-11.1-10.6-14.9-15.5c-0.8-0.8-1.4-1.8-2-2.7c4.6,4.2,11.9,9.5,14.5,11c-5.5-5.8-10.4-13-10.2-12.8
	C21.1,19,29.2,24,29.2,24c0.3,0.2,0.5,0.3,0.6,0.4c0.2-0.4,0.3-0.9,0.5-1.4c1.4-5.1-0.2-10.9-3.7-15.7c8.1,4.9,12.9,14.1,10.9,21.8
	c-0.1,0.2-0.1,0.4-0.2,0.6c0,0,0,0.1,0.1,0.1c4,5,2.9,10.3,2.4,9.3C37.6,34.9,33.6,36.2,31.6,37z"/>
<path class="st2" d="M153.5,21h-11.6v-1.5c0-1.2,0.1-2.4,0.2-3.6s0.4-2.2,0.8-3s1-1.5,1.7-2c0.8-0.5,1.8-0.8,3-0.8
	c0.8,0,1.4,0.1,1.9,0.2c0.5,0.2,0.9,0.3,1.3,0.5l0.8-2c-0.4-0.2-0.9-0.4-1.6-0.6c-0.6-0.2-1.4-0.3-2.2-0.3c-1.6,0-2.9,0.3-4,0.9
	s-2,1.5-2.7,2.5c-0.6,1-1.1,2.3-1.4,3.7s-0.4,3-0.4,4.6v1.5h-3.8v2h3.8v24.2h2.6V23h11.7h-0.1v16.6c0,1.2,0.1,2.3,0.3,3.3
	c0.1,1,0.5,1.9,0.9,2.6s1,1.3,1.8,1.7s1.8,0.6,3,0.6c1.5,0,2.6-0.2,3.5-0.6l-0.3-2c-0.3,0.1-0.7,0.2-1.2,0.3s-1,0.1-1.7,0.1
	c-1.4,0-2.3-0.5-2.9-1.4c-0.5-0.9-0.8-2.3-0.8-4V23.1h7.3v-2h-7.3v-5.8l-2.6,0.8C153.5,16.1,153.5,21,153.5,21z M153.6,21h0.1H153.6
	z M153.7,23h-0.1H153.7z M62.9,43.3c1,0.7,2.2,1.3,3.6,1.7c1.3,0.4,2.8,0.7,4.3,0.7c2.7,0,4.9-0.7,6.4-2.1s2.3-3.3,2.3-5.5
	c0-2.1-0.6-3.8-1.7-5.1s-3-2.5-5.6-3.6c-2.8-1-5.1-2.3-6.8-3.9s-2.5-3.7-2.5-6.2c0-1.3,0.3-2.6,0.8-3.7c0.5-1.1,1.3-2.1,2.2-2.9
	s2-1.5,3.3-1.9c1.3-0.5,2.7-0.7,4.2-0.7c1.7,0,3.2,0.2,4.4,0.5c1.2,0.4,2.1,0.7,2.7,1.1l-1,2.2c-0.5-0.4-1.3-0.7-2.4-1.1
	s-2.4-0.6-3.9-0.6s-2.7,0.2-3.7,0.6s-1.8,1-2.4,1.6c-0.6,0.7-1,1.4-1.3,2.2s-0.4,1.5-0.4,2.3c0,2,0.6,3.7,1.8,4.9s3.1,2.3,5.7,3.4
	c1.5,0.6,2.8,1.3,3.9,2s2.1,1.5,2.9,2.3c0.8,0.8,1.3,1.8,1.7,2.8c0.4,1.1,0.6,2.3,0.6,3.6s-0.2,2.6-0.7,3.9
	c-0.5,1.2-1.2,2.3-2.2,3.2s-2.2,1.7-3.6,2.2s-3.1,0.8-5,0.8c-0.8,0-1.6-0.1-2.4-0.2s-1.6-0.3-2.4-0.5s-1.5-0.5-2.2-0.8
	s-1.3-0.6-1.7-0.9C61.8,45.6,62.9,43.3,62.9,43.3z M86.9,21.1L91.2,36c0.4,1.5,0.8,3,1.2,4.3s0.7,2.7,1,3.9h0.2
	c0.3-1.2,0.7-2.5,1.1-3.9s0.9-2.8,1.4-4.3l5.1-14.9h2.4l4.9,14.7c0.5,1.6,1,3.1,1.4,4.5s0.8,2.7,1.1,3.9h0.2c0.3-1.3,0.6-2.6,1-3.9
	s0.8-2.8,1.3-4.4l4.6-14.8h2.6l-8.6,26.2H110l-4.9-14.6c-0.5-1.6-1-3.1-1.5-4.5c-0.4-1.4-0.8-2.9-1.1-4.4h-0.1
	c-0.4,1.6-0.8,3.1-1.3,4.5s-1,2.9-1.5,4.5l-5.1,14.5h-2.2l-8-26.2C84.3,21.1,86.9,21.1,86.9,21.1z M126.2,21.1h2.6v26.2h-2.6
	C126.2,47.3,126.2,21.1,126.2,21.1z M125.2,13.1c0-0.6,0.2-1.1,0.6-1.6c0.4-0.4,0.9-0.7,1.6-0.7c0.6,0,1.1,0.2,1.6,0.7
	c0.4,0.4,0.7,1,0.7,1.6s-0.2,1.1-0.7,1.6c-0.4,0.4-1,0.6-1.6,0.6s-1.1-0.2-1.6-0.6C125.4,14.2,125.2,13.7,125.2,13.1z"/>
</svg>
