<?xml version="1.0" encoding="utf-8"?>
<!-- Generator: Adobe Illustrator 19.2.0, SVG Export Plug-In . SVG Version: 6.00 Build 0)  -->
<svg version="1.1" id="Layer_1" xmlns="http://www.w3.org/2000/svg" xmlns:xlink="http://www.w3.org/1999/xlink" x="0px" y="0px"
	 viewBox="0 0 430.9 57.9" style="enable-background:new 0 0 430.9 57.9;" xml:space="preserve">
<style type="text/css">
	.st0{fill:none;stroke:#F16822;stroke-width:1.5551;stroke-miterlimit:10;}
	.st1{fill:#F16822;}
	.st2{fill:#FFFFFF;}
	.st3{font-family:'Raleway';}
	.st4{font-size:29.332px;}
</style>
<g>
	<g>
		<path class="st0" d="M23.6,39.7"/>
		<path class="st0" d="M23.6,39.7"/>
		<polygon class="st1" points="6.8,2.6 4,4.2 10.5,15 13.2,13.5 		"/>
		<path class="st2" d="M46.5,26.1c-2-6-6.3-10.9-12-13.8c-3.3-1.7-6.9-2.5-10.6-2.5c-2.2,0-4.3,0.3-6.4,0.9L11.3,0L8.6,1.6l7.5,13
			l1.2-0.4c2.2-0.7,4.4-1.1,6.6-1.1c3.2,0,6.3,0.7,9.2,2.2c5,2.5,8.7,6.7,10.4,11.9c1.8,5.2,1.4,10.8-1.1,15.8
			c-2.5,5-6.7,8.7-11.9,10.4c-2.2,0.7-4.4,1.1-6.6,1.1c-3.2,0-6.3-0.7-9.2-2.2c-5-2.5-8.7-6.7-10.4-11.9c-1.6-4.9-1.4-10.2,0.7-14.9
			l0.3-0.6l-2.9-1.3L2,24.2c-2.4,5.5-2.7,11.6-0.8,17.2c2,6,6.3,10.9,12,13.8c3.3,1.7,6.9,2.5,10.6,2.5c2.6,0,5.2-0.4,7.6-1.3
			c6-2,10.9-6.3,13.8-12C48.1,38.6,48.6,32.2,46.5,26.1z"/>
	</g>
	<g>
		<path class="st2" d="M55.8,27h8.5c1.1,0,2,0.1,3,0.4c0.9,0.3,1.7,0.6,2.4,1.1c0.7,0.5,1.2,1.1,1.6,1.9c0.4,0.8,0.6,1.7,0.6,2.7
			c0,1.4-0.4,2.6-1.2,3.4c-0.8,0.9-1.8,1.5-3,2v0.1c0.7,0,1.4,0.2,2.1,0.6c0.6,0.3,1.2,0.8,1.7,1.3c0.5,0.5,0.8,1.2,1.1,1.9
			c0.3,0.7,0.4,1.5,0.4,2.3c0,1.1-0.2,2.1-0.7,2.9c-0.5,0.8-1.1,1.6-1.9,2.1c-0.8,0.6-1.7,1-2.7,1.3c-1,0.3-2.2,0.5-3.4,0.5h-8.4V27
			z M59.1,37.2h4.5c0.6,0,1.2-0.1,1.8-0.2c0.6-0.1,1-0.3,1.5-0.6c0.4-0.3,0.7-0.7,1-1.1c0.2-0.5,0.4-1,0.4-1.7c0-1-0.3-1.8-0.9-2.5
			c-0.6-0.7-1.6-1.1-2.9-1.1h-5.2V37.2z M59.1,48.6H64c0.5,0,1.1-0.1,1.7-0.2c0.6-0.1,1.2-0.3,1.7-0.6c0.5-0.3,1-0.7,1.3-1.3
			c0.4-0.5,0.6-1.2,0.6-2.1c0-1.5-0.5-2.5-1.4-3.3c-0.9-0.7-2.2-1.1-3.8-1.1h-4.9V48.6z"/>
		<path class="st2" d="M74.5,43.3c0-1.2,0.2-2.3,0.7-3.4c0.4-1,1.1-1.9,1.9-2.7c0.8-0.8,1.7-1.4,2.8-1.9c1.1-0.5,2.2-0.7,3.4-0.7
			c1.2,0,2.4,0.2,3.4,0.7c1.1,0.4,2,1.1,2.8,1.9c0.8,0.8,1.4,1.7,1.9,2.7c0.4,1,0.7,2.2,0.7,3.4c0,1.2-0.2,2.3-0.7,3.4
			c-0.4,1.1-1.1,2-1.9,2.7c-0.8,0.8-1.7,1.4-2.8,1.8c-1.1,0.5-2.2,0.7-3.4,0.7c-1.2,0-2.4-0.2-3.4-0.7c-1.1-0.4-2-1.1-2.8-1.8
			c-0.8-0.8-1.4-1.7-1.9-2.7C74.8,45.6,74.5,44.5,74.5,43.3z M77.9,43.3c0,0.8,0.1,1.6,0.4,2.3c0.3,0.7,0.6,1.3,1.1,1.8
			c0.5,0.5,1,0.9,1.7,1.2s1.4,0.4,2.2,0.4s1.6-0.1,2.2-0.4c0.7-0.3,1.2-0.7,1.7-1.2c0.5-0.5,0.8-1.1,1.1-1.8
			c0.3-0.7,0.4-1.5,0.4-2.3c0-0.8-0.1-1.6-0.4-2.3c-0.3-0.7-0.6-1.3-1.1-1.8c-0.5-0.5-1-0.9-1.7-1.2c-0.7-0.3-1.4-0.4-2.2-0.4
			S81.7,37.7,81,38s-1.2,0.7-1.7,1.2c-0.5,0.5-0.8,1.1-1.1,1.8C78,41.7,77.9,42.5,77.9,43.3z"/>
		<path class="st2" d="M94.2,34.9h2.9v2.6h0.1c0.1-0.2,0.2-0.5,0.5-0.9c0.3-0.3,0.7-0.7,1.1-1c0.5-0.3,1-0.6,1.6-0.8
			c0.6-0.2,1.3-0.3,2-0.3c1.2,0,2.2,0.3,3.1,0.8c0.8,0.5,1.5,1.3,2,2.3c0.5-1,1.3-1.8,2.2-2.3c1-0.5,1.9-0.8,2.9-0.8
			c1.3,0,2.3,0.2,3.1,0.6c0.8,0.4,1.4,1,1.9,1.6c0.5,0.7,0.8,1.5,1,2.3c0.2,0.9,0.3,1.8,0.3,2.7v9.6h-3.1v-9.1c0-0.6,0-1.2-0.1-1.8
			c-0.1-0.6-0.2-1.1-0.5-1.5c-0.3-0.4-0.6-0.8-1.1-1.1c-0.5-0.3-1.1-0.4-1.8-0.4c-1.5,0-2.6,0.5-3.2,1.4c-0.6,0.9-1,2.1-1,3.6v9H105
			v-8.6c0-0.8,0-1.5-0.1-2.1c-0.1-0.6-0.2-1.2-0.5-1.7c-0.2-0.5-0.6-0.8-1-1.1c-0.5-0.3-1.1-0.4-1.8-0.4c-0.6,0-1.1,0.1-1.6,0.3
			c-0.5,0.2-1,0.5-1.4,1c-0.4,0.4-0.7,1-0.9,1.7c-0.2,0.7-0.3,1.5-0.3,2.4v8.5h-3.1V34.9z"/>
		<path class="st2" d="M122,24.7h3.1v12.1h0.1c0.6-0.9,1.3-1.5,2.4-2c1-0.5,2.1-0.7,3.3-0.7c1.3,0,2.4,0.2,3.4,0.7
			c1,0.4,1.9,1,2.6,1.8c0.7,0.8,1.3,1.7,1.7,2.7c0.4,1.1,0.6,2.2,0.6,3.4c0,1.2-0.2,2.4-0.6,3.4c-0.4,1-1,1.9-1.7,2.7
			c-0.7,0.8-1.6,1.4-2.6,1.8c-1,0.4-2.2,0.7-3.4,0.7c-1.1,0-2.2-0.2-3.2-0.7c-1-0.5-1.9-1.2-2.5-2h-0.1v2.8H122V24.7z M130.5,48.4
			c0.8,0,1.6-0.1,2.2-0.4s1.2-0.7,1.7-1.2c0.5-0.5,0.8-1.1,1.1-1.8c0.3-0.7,0.4-1.5,0.4-2.3c0-0.8-0.1-1.6-0.4-2.3
			c-0.3-0.7-0.6-1.3-1.1-1.8c-0.5-0.5-1-0.9-1.7-1.2s-1.4-0.4-2.2-0.4s-1.6,0.1-2.2,0.4s-1.2,0.7-1.7,1.2c-0.5,0.5-0.8,1.1-1.1,1.8
			c-0.3,0.7-0.4,1.5-0.4,2.3c0,0.8,0.1,1.6,0.4,2.3c0.3,0.7,0.6,1.3,1.1,1.8c0.5,0.5,1,0.9,1.7,1.2S129.6,48.4,130.5,48.4z"/>
		<path class="st2" d="M143,27h8.5c1.1,0,2,0.1,3,0.4c0.9,0.3,1.7,0.6,2.4,1.1c0.7,0.5,1.2,1.1,1.6,1.9c0.4,0.8,0.6,1.7,0.6,2.7
			c0,1.4-0.4,2.6-1.2,3.4c-0.8,0.9-1.8,1.5-3,2v0.1c0.7,0,1.4,0.2,2.1,0.6c0.6,0.3,1.2,0.8,1.7,1.3c0.5,0.5,0.8,1.2,1.1,1.9
			c0.3,0.7,0.4,1.5,0.4,2.3c0,1.1-0.2,2.1-0.7,2.9c-0.4,0.8-1.1,1.6-1.9,2.1c-0.8,0.6-1.7,1-2.7,1.3c-1,0.3-2.2,0.5-3.4,0.5H143V27z
			 M146.3,37.2h4.5c0.6,0,1.2-0.1,1.8-0.2c0.6-0.1,1-0.3,1.5-0.6c0.4-0.3,0.7-0.7,1-1.1c0.2-0.5,0.4-1,0.4-1.7c0-1-0.3-1.8-0.9-2.5
			c-0.6-0.7-1.6-1.1-2.9-1.1h-5.2V37.2z M146.3,48.6h4.9c0.5,0,1.1-0.1,1.7-0.2c0.6-0.1,1.2-0.3,1.7-0.6c0.5-0.3,1-0.7,1.3-1.3
			c0.4-0.5,0.6-1.2,0.6-2.1c0-1.5-0.5-2.5-1.4-3.3c-0.9-0.7-2.2-1.1-3.8-1.1h-4.9V48.6z"/>
		<path class="st2" d="M161.8,43.3c0-1.2,0.2-2.3,0.7-3.4c0.4-1,1.1-1.9,1.9-2.7c0.8-0.8,1.7-1.4,2.8-1.9c1.1-0.5,2.2-0.7,3.4-0.7
			c1.2,0,2.4,0.2,3.4,0.7c1.1,0.4,2,1.1,2.8,1.9c0.8,0.8,1.4,1.7,1.9,2.7c0.4,1,0.7,2.2,0.7,3.4c0,1.2-0.2,2.3-0.7,3.4
			c-0.4,1.1-1.1,2-1.9,2.7c-0.8,0.8-1.7,1.4-2.8,1.8c-1.1,0.5-2.2,0.7-3.4,0.7c-1.2,0-2.4-0.2-3.4-0.7c-1.1-0.4-2-1.1-2.8-1.8
			c-0.8-0.8-1.4-1.7-1.9-2.7C162,45.6,161.8,44.5,161.8,43.3z M165.1,43.3c0,0.8,0.1,1.6,0.4,2.3c0.3,0.7,0.6,1.3,1.1,1.8
			c0.5,0.5,1,0.9,1.7,1.2s1.4,0.4,2.2,0.4c0.8,0,1.6-0.1,2.2-0.4c0.7-0.3,1.2-0.7,1.7-1.2c0.5-0.5,0.8-1.1,1.1-1.8
			c0.3-0.7,0.4-1.5,0.4-2.3c0-0.8-0.1-1.6-0.4-2.3c-0.3-0.7-0.6-1.3-1.1-1.8c-0.5-0.5-1-0.9-1.7-1.2c-0.7-0.3-1.4-0.4-2.2-0.4
			c-0.8,0-1.6,0.1-2.2,0.4s-1.2,0.7-1.7,1.2c-0.5,0.5-0.8,1.1-1.1,1.8C165.2,41.7,165.1,42.5,165.1,43.3z"/>
		<path class="st2" d="M181.4,34.9h2.9v2.6h0.1c0.1-0.2,0.2-0.5,0.5-0.9c0.3-0.3,0.7-0.7,1.1-1c0.4-0.3,1-0.6,1.6-0.8
			c0.6-0.2,1.3-0.3,2-0.3c1.2,0,2.2,0.3,3.1,0.8c0.8,0.5,1.5,1.3,2,2.3c0.5-1,1.3-1.8,2.2-2.3c1-0.5,1.9-0.8,2.9-0.8
			c1.3,0,2.3,0.2,3.1,0.6c0.8,0.4,1.4,1,1.9,1.6c0.5,0.7,0.8,1.5,1,2.3c0.2,0.9,0.3,1.8,0.3,2.7v9.6h-3.1v-9.1c0-0.6,0-1.2-0.1-1.8
			c-0.1-0.6-0.2-1.1-0.5-1.5c-0.3-0.4-0.6-0.8-1.1-1.1c-0.5-0.3-1.1-0.4-1.8-0.4c-1.5,0-2.6,0.5-3.2,1.4c-0.6,0.9-1,2.1-1,3.6v9
			h-3.1v-8.6c0-0.8,0-1.5-0.1-2.1c-0.1-0.6-0.2-1.2-0.5-1.7c-0.2-0.5-0.6-0.8-1-1.1c-0.4-0.3-1.1-0.4-1.8-0.4
			c-0.6,0-1.1,0.1-1.6,0.3c-0.5,0.2-1,0.5-1.4,1c-0.4,0.4-0.7,1-0.9,1.7c-0.2,0.7-0.3,1.5-0.3,2.4v8.5h-3.1V34.9z"/>
		<path class="st2" d="M209.2,24.7h3.1v12.1h0.1c0.6-0.9,1.3-1.5,2.4-2c1-0.5,2.1-0.7,3.3-0.7c1.3,0,2.4,0.2,3.4,0.7
			c1,0.4,1.9,1,2.6,1.8c0.7,0.8,1.3,1.7,1.7,2.7c0.4,1.1,0.6,2.2,0.6,3.4c0,1.2-0.2,2.4-0.6,3.4c-0.4,1-1,1.9-1.7,2.7
			c-0.7,0.8-1.6,1.4-2.6,1.8c-1,0.4-2.2,0.7-3.4,0.7c-1.1,0-2.2-0.2-3.2-0.7s-1.9-1.2-2.5-2h-0.1v2.8h-3.1V24.7z M217.7,48.4
			c0.8,0,1.6-0.1,2.2-0.4s1.2-0.7,1.7-1.2c0.5-0.5,0.8-1.1,1.1-1.8c0.3-0.7,0.4-1.5,0.4-2.3c0-0.8-0.1-1.6-0.4-2.3
			c-0.3-0.7-0.6-1.3-1.1-1.8c-0.5-0.5-1-0.9-1.7-1.2s-1.4-0.4-2.2-0.4s-1.6,0.1-2.2,0.4s-1.2,0.7-1.7,1.2c-0.5,0.5-0.8,1.1-1.1,1.8
			c-0.3,0.7-0.4,1.5-0.4,2.3c0,0.8,0.1,1.6,0.4,2.3c0.3,0.7,0.6,1.3,1.1,1.8c0.5,0.5,1,0.9,1.7,1.2S216.9,48.4,217.7,48.4z"/>
	</g>
	<g>
		<path class="st2" d="M228.2,28.2h-1.4v-0.9h3.8v0.9h-1.4V32h-1V28.2z"/>
		<path class="st2" d="M231.1,27.2h1.6l1.1,3.1h0l1.1-3.1h1.6V32h-1v-3.6h0l-1.2,3.6h-0.8l-1.2-3.6h0V32h-1V27.2z"/>
	</g>
</g>
<text transform="matrix(1 0 0 1 237.9879 51.3006)" class="st2 st3 st4">&lt;developer /&gt;</text>
</svg>
